<svg width="270" height="69" viewBox="0 0 270 69" fill="none" xmlns="http://www.w3.org/2000/svg">
<path d="M14.5283 15.2692L24.7144 28.3751H20.2504L12.3369 18.1272L4.38284 28.3751H0L10.1455 15.2692L0.405819 2.65326H4.78866L12.3369 12.4112L19.9257 2.65326H24.3085L14.5283 15.2692Z" fill="white"/>
<path d="M45.7526 28.3343H27.9777V2.69408H45.0627V6.32781H31.5489V13.4728C32.2794 13.745 32.9828 13.8811 33.6592 13.8811C34.552 13.8811 35.3907 13.745 36.1752 13.4728C36.9598 13.2006 37.7579 13.0645 38.5696 13.0645C39.2459 13.0645 39.8817 13.2142 40.4769 13.5136V17.2698C39.7735 17.0249 39.1107 16.9024 38.4884 16.9024C37.6497 16.9024 36.8381 17.0112 36.0535 17.229C35.2689 17.4467 34.4302 17.5556 33.5374 17.5556C32.8881 17.5556 32.2253 17.4604 31.5489 17.2698V24.7414H45.7526V28.3343Z" fill="white"/>
<path d="M61.0649 2.44911C64.1491 2.63965 66.4353 3.60592 67.9233 5.34793C69.4383 7.08994 70.1958 9.44438 70.1958 12.4112C70.1958 13.6361 69.9253 14.7793 69.3842 15.8408C68.8702 16.8751 68.1532 17.787 67.2334 18.5763C66.3406 19.3657 65.2854 19.9917 64.068 20.4544C62.8776 20.8899 61.6195 21.1077 60.2939 21.1077H54.6936V28.3343H51.1224V6.73609C50.6624 6.70888 50.2296 6.66805 49.8237 6.61361C49.4179 6.55917 49.0121 6.4503 48.6063 6.28698V2.8574C49.1474 2.99349 49.702 3.08876 50.2701 3.1432C50.8654 3.19763 51.4064 3.22485 51.8934 3.22485C52.5968 3.22485 53.2732 3.18402 53.9225 3.10237C54.5989 3.02071 55.2752 2.93905 55.9516 2.8574C56.655 2.7213 57.3449 2.62604 58.0213 2.5716C58.6977 2.48994 59.4281 2.44911 60.2127 2.44911H61.0649ZM66.9899 12.2071C66.9899 11.4722 66.9222 10.7509 66.787 10.0432C66.6517 9.30828 66.3676 8.65503 65.9347 8.08343C65.5019 7.51183 64.8796 7.0355 64.068 6.65444C63.2563 6.27337 62.1742 6.04201 60.8214 5.96035C60.0639 5.96035 59.1576 5.98757 58.1024 6.04201C57.0744 6.09645 55.9381 6.27337 54.6936 6.57278V17.5556H60.2939C61.1867 17.5556 62.0254 17.4331 62.8099 17.1882C63.5945 16.9432 64.2844 16.5893 64.8796 16.1266C65.5019 15.6367 65.9889 15.0651 66.3406 14.4118C66.7193 13.7586 66.9358 13.0237 66.9899 12.2071Z" fill="white"/>
<path d="M99.2553 19.9237C98.7142 21.4751 97.8891 22.8905 96.7798 24.1698C95.6706 25.4491 94.3179 26.497 92.7216 27.3136C90.8278 28.2663 88.8393 28.7426 86.7561 28.7426C85.4575 28.7426 84.213 28.5793 83.0226 28.2527C81.8322 27.8988 80.7229 27.4089 79.6949 26.7828C78.6668 26.1296 77.7334 25.3538 76.8947 24.4556C76.0831 23.5574 75.3932 22.5367 74.825 21.3935C74.3651 20.4408 74.0134 19.4609 73.7699 18.4538C73.5535 17.4467 73.4453 16.4533 73.4453 15.4734C73.4453 14.2485 73.6076 13.0373 73.9322 11.8396C74.2839 10.642 74.7709 9.52604 75.3932 8.49172C76.0154 7.43018 76.7865 6.47751 77.7063 5.63373C78.6262 4.76272 79.6678 4.02781 80.8311 3.429C82.7791 2.47633 84.7946 2 86.8778 2C88.1494 2 89.3669 2.17692 90.5302 2.53077C91.7206 2.8574 92.8298 3.34734 93.8579 4.00059C94.886 4.62663 95.8058 5.38876 96.6175 6.28698C97.4562 7.18521 98.1596 8.20592 98.7278 9.34911C99.0254 9.92071 99.2688 10.4787 99.4582 11.0231C98.4843 11.0231 97.7402 11.0231 97.2262 11.0231C96.7122 10.9959 96.3334 10.9822 96.0899 10.9822C95.8464 10.9822 95.6976 10.9822 95.6435 10.9822C95.5894 10.955 95.5624 10.9414 95.5624 10.9414C94.7507 9.25385 93.5603 7.93373 91.9912 6.98107C90.449 6.0284 88.7446 5.55207 86.8778 5.55207C85.2816 5.55207 83.7936 5.90592 82.4138 6.61361C81.5481 7.04911 80.777 7.59349 80.1007 8.24675C79.4514 8.87278 78.8967 9.58047 78.4368 10.3698C77.9769 11.132 77.6252 11.9485 77.3817 12.8195C77.1382 13.6905 77.0165 14.5751 77.0165 15.4734C77.0165 16.9704 77.3546 18.413 78.031 19.8012C78.8426 21.4888 80.0195 22.8089 81.5616 23.7615C83.1308 24.7142 84.8623 25.1905 86.7561 25.1905C88.2171 25.1905 89.678 24.8367 91.1389 24.129C92.0858 23.6663 92.9245 23.0675 93.655 22.3325C94.3855 21.5976 94.9807 20.7947 95.4406 19.9237H99.2553Z" fill="white"/>
<path d="M115.17 28.7834C113.331 28.7834 111.599 28.4432 109.976 27.7627C108.38 27.055 106.986 26.1024 105.796 24.9047C104.606 23.6799 103.659 22.2645 102.955 20.6586C102.252 19.0527 101.9 17.3243 101.9 15.4734C101.9 13.6497 102.252 11.9349 102.955 10.329C103.659 8.72308 104.606 7.3213 105.796 6.12367C106.986 4.89882 108.38 3.94615 109.976 3.26568C111.599 2.55799 113.331 2.20414 115.17 2.20414C117.01 2.20414 118.742 2.55799 120.365 3.26568C121.988 3.94615 123.395 4.89882 124.585 6.12367C125.803 7.3213 126.763 8.72308 127.467 10.329C128.17 11.9349 128.522 13.6497 128.522 15.4734C128.522 17.3243 128.17 19.0527 127.467 20.6586C126.763 22.2645 125.803 23.6799 124.585 24.9047C123.395 26.1024 121.988 27.055 120.365 27.7627C118.742 28.4432 117.01 28.7834 115.17 28.7834ZM115.17 5.75621C113.818 5.75621 112.546 6.01479 111.356 6.53195C110.192 7.04911 109.164 7.74319 108.271 8.6142C107.406 9.48521 106.716 10.5195 106.202 11.7172C105.688 12.8876 105.431 14.1396 105.431 15.4734C105.431 16.8343 105.688 18.1136 106.202 19.3112C106.716 20.4817 107.406 21.5024 108.271 22.3734C109.164 23.2444 110.192 23.9385 111.356 24.4556C112.546 24.9728 113.818 25.2314 115.17 25.2314C116.55 25.2314 117.835 24.9728 119.026 24.4556C120.216 23.9385 121.244 23.2444 122.11 22.3734C123.003 21.5024 123.693 20.4817 124.18 19.3112C124.694 18.1136 124.951 16.8343 124.951 15.4734C124.951 14.1396 124.694 12.8876 124.18 11.7172C123.693 10.5195 123.003 9.48521 122.11 8.6142C121.244 7.74319 120.216 7.04911 119.026 6.53195C117.835 6.01479 116.55 5.75621 115.17 5.75621Z" fill="white"/>
<path d="M154.041 2.65326V28.3343H150.51V16.9024H135.698V28.3343H132.167V2.65326H135.698V13.3095H150.51V2.65326H154.041Z" fill="white"/>
<path d="M176.692 28.3343H158.918V2.69408H176.003V6.32781H162.489V13.4728C163.219 13.745 163.923 13.8811 164.599 13.8811C165.492 13.8811 166.331 13.745 167.115 13.4728C167.9 13.2006 168.698 13.0645 169.51 13.0645C170.186 13.0645 170.822 13.2142 171.417 13.5136V17.2698C170.713 17.0249 170.051 16.9024 169.428 16.9024C168.59 16.9024 167.778 17.0112 166.993 17.229C166.209 17.4467 165.37 17.5556 164.477 17.5556C163.828 17.5556 163.165 17.4604 162.489 17.2698V24.7414H176.692V28.3343Z" fill="white"/>
<path d="M203.801 19.9237C203.26 21.4751 202.435 22.8905 201.326 24.1698C200.216 25.4491 198.864 26.497 197.267 27.3136C195.374 28.2663 193.385 28.7426 191.302 28.7426C190.003 28.7426 188.759 28.5793 187.568 28.2527C186.378 27.8988 185.269 27.4089 184.241 26.7828C183.213 26.1296 182.279 25.3538 181.441 24.4556C180.629 23.5574 179.939 22.5367 179.371 21.3935C178.911 20.4408 178.559 19.4609 178.316 18.4538C178.099 17.4467 177.991 16.4533 177.991 15.4734C177.991 14.2485 178.153 13.0373 178.478 11.8396C178.83 10.642 179.317 9.52604 179.939 8.49172C180.561 7.43018 181.332 6.47751 182.252 5.63373C183.172 4.76272 184.214 4.02781 185.377 3.429C187.325 2.47633 189.34 2 191.424 2C192.695 2 193.913 2.17692 195.076 2.53077C196.266 2.8574 197.376 3.34734 198.404 4.00059C199.432 4.62663 200.352 5.38876 201.163 6.28698C202.002 7.18521 202.705 8.20592 203.274 9.34911C203.571 9.92071 203.815 10.4787 204.004 11.0231C203.03 11.0231 202.286 11.0231 201.772 11.0231C201.258 10.9959 200.879 10.9822 200.636 10.9822C200.392 10.9822 200.243 10.9822 200.189 10.9822C200.135 10.955 200.108 10.9414 200.108 10.9414C199.297 9.25385 198.106 7.93373 196.537 6.98107C194.995 6.0284 193.29 5.55207 191.424 5.55207C189.827 5.55207 188.339 5.90592 186.96 6.61361C186.094 7.04911 185.323 7.59349 184.647 8.24675C183.997 8.87278 183.443 9.58047 182.983 10.3698C182.523 11.132 182.171 11.9485 181.928 12.8195C181.684 13.6905 181.562 14.5751 181.562 15.4734C181.562 16.9704 181.9 18.413 182.577 19.8012C183.388 21.4888 184.565 22.8089 186.107 23.7615C187.677 24.7142 189.408 25.1905 191.302 25.1905C192.763 25.1905 194.224 24.8367 195.685 24.129C196.632 23.6663 197.47 23.0675 198.201 22.3325C198.931 21.5976 199.527 20.7947 199.986 19.9237H203.801Z" fill="white"/>
<path d="M24.268 43.5225C24.2409 44.4207 24.0921 45.2645 23.8216 46.0538C23.5781 46.816 23.2128 47.4964 22.7258 48.0953C22.2389 48.6669 21.6166 49.1296 20.8591 49.4834C20.1286 49.8101 19.2764 49.9734 18.3024 49.9734C17.5178 49.9734 16.7603 49.9053 16.0298 49.7692C15.2994 49.6059 14.5148 49.3746 13.6761 49.0751V69.1627H10.1049V47.6461C9.50968 47.4284 8.88743 47.2515 8.23812 47.1154C7.58881 46.9793 6.9395 46.9112 6.29019 46.9112C5.58677 46.9112 4.93746 47.0337 4.34226 47.2787C3.77411 47.5237 3.47651 48.068 3.44946 48.9118H0C0 48.0136 0.162327 47.2243 0.486982 46.5438C0.838692 45.8633 1.29862 45.3053 1.86677 44.8698C2.43491 44.4071 3.09775 44.0669 3.85528 43.8491C4.63986 43.6041 5.47855 43.4817 6.37135 43.4817C7.72408 43.4817 8.92801 43.645 9.98314 43.9716C11.0653 44.271 12.0528 44.6112 12.9456 44.9923C13.8655 45.3734 14.7447 45.7272 15.5834 46.0538C16.4492 46.3533 17.342 46.503 18.2618 46.503C18.7759 46.503 19.1952 46.4485 19.5199 46.3396C19.8445 46.2308 20.088 46.0675 20.2504 45.8497C20.4397 45.6047 20.5615 45.2917 20.6156 44.9106C20.6968 44.5296 20.7509 44.0669 20.7779 43.5225H24.268Z" fill="white"/>
<path d="M34.9825 43.4817C36.5517 47.4556 38.0262 51.1574 39.4059 54.587C39.9741 56.0568 40.5558 57.5402 41.151 59.0373C41.7462 60.5071 42.3008 61.8953 42.8148 63.2018C43.3559 64.5083 43.8294 65.6787 44.2352 66.713C44.6681 67.7473 44.9927 68.5503 45.2092 69.1219H41.435C40.8669 67.6521 40.2852 66.1959 39.69 64.7533C39.1219 63.2834 38.5402 61.7728 37.945 60.2213C37.0251 59.9491 36.0918 59.813 35.1448 59.813C34.4414 59.813 33.738 59.8675 33.0346 59.9763C32.3582 60.0852 31.6683 60.1941 30.9649 60.303L27.8401 60.7929L24.4718 69.1219H20.6571L24.0254 60.6296C23.5655 60.5479 23.065 60.4254 22.5239 60.2621C22.0098 60.0988 21.4958 59.8811 20.9818 59.6089V55.526C21.7934 56.0432 22.5509 56.4379 23.2544 56.7101C23.9848 56.9822 24.6883 57.1592 25.3646 57.2408L30.8837 43.4817H34.9825ZM30.275 56.8325C30.3291 56.8325 30.3562 56.8325 30.3562 56.8325C30.3832 56.8053 30.4238 56.7917 30.4779 56.7917C31.1814 56.6556 31.9118 56.5331 32.6694 56.4243C33.4269 56.2882 34.1979 56.2201 34.9825 56.2201C35.199 56.2201 35.4289 56.2337 35.6724 56.2609C35.9159 56.2609 36.1459 56.2746 36.3623 56.3018L36.1188 55.526L32.994 47.7278L29.2605 56.9959C29.4228 56.9414 29.5851 56.9142 29.7475 56.9142C29.9368 56.9142 30.1127 56.887 30.275 56.8325Z" fill="white"/>
<path d="M64.19 54.9953C65.5428 55.5396 66.5438 56.3698 67.1931 57.4858C67.8424 58.5746 68.1671 59.7722 68.1671 61.0787C68.1671 62.7118 67.8559 64.0456 67.2337 65.0799C66.6385 66.1142 65.8269 66.9308 64.7988 67.5296C63.7978 68.1284 62.6479 68.5503 61.3493 68.7953C60.0507 69.013 58.698 69.1219 57.2911 69.1219H48.8907V47.5645H47.9979C47.7814 47.5645 47.5515 47.5373 47.308 47.4828C47.0645 47.4012 46.794 47.3195 46.4964 47.2379V43.8491C46.7669 43.9035 47.0645 43.958 47.3892 44.0124C47.7409 44.0669 48.079 44.0941 48.4037 44.0941C48.9989 44.0941 49.5806 44.0533 50.1487 43.9716C50.7439 43.8899 51.3391 43.8491 51.9343 43.8491C52.773 43.7402 53.6117 43.645 54.4504 43.5633C55.2891 43.4817 56.1684 43.4408 57.0882 43.4408C58.1434 43.4408 59.1849 43.5361 60.213 43.7266C61.2411 43.9172 62.161 44.2574 62.9726 44.7473C63.8113 45.2373 64.4876 45.9177 65.0017 46.7888C65.5157 47.6598 65.7727 48.7757 65.7727 50.1367C65.7727 51.0621 65.6239 51.8243 65.3263 52.4231C65.0287 52.9947 64.7041 53.4846 64.3524 53.8929L63.2567 54.6278L64.19 54.9953ZM64.677 61.487C64.677 60.5888 64.4335 59.8402 63.9466 59.2414C63.4866 58.6154 62.8914 58.1254 62.161 57.7716C61.4575 57.4178 60.673 57.1728 59.8072 57.0367C58.9685 56.8734 58.1569 56.7917 57.3723 56.7917H55.4649V53.3213H57.3723C58.4004 53.2396 59.2661 53.0763 59.9695 52.8314C60.7 52.5864 61.3087 52.1917 61.7957 51.6473C61.931 51.5112 62.0527 51.3207 62.161 51.0757C62.2962 50.8308 62.3639 50.4905 62.3639 50.055C62.3639 49.9734 62.3503 49.8917 62.3233 49.8101C62.2962 49.7284 62.2827 49.6195 62.2827 49.4834C62.2015 48.9935 61.9986 48.5852 61.674 48.2586C61.3764 47.9047 60.9976 47.6325 60.5377 47.442C60.1048 47.2515 59.6043 47.1154 59.0362 47.0337C58.4951 46.9521 57.9269 46.9112 57.3317 46.9112C56.3307 46.9112 55.4108 46.9793 54.5721 47.1154C53.7605 47.2243 53.0165 47.2923 52.3401 47.3195V65.6923C52.5836 65.6923 52.8677 65.7059 53.1924 65.7331C53.5441 65.7331 53.9093 65.7467 54.2881 65.774C54.6668 65.8012 55.0456 65.8284 55.4244 65.8556C55.8031 65.8556 56.1548 65.8556 56.4795 65.8556C57.5617 65.8556 58.5762 65.8012 59.5231 65.6923C60.47 65.5562 61.3087 65.3385 62.0392 65.0391C62.7697 64.7124 63.3649 64.2633 63.8248 63.6917C64.2847 63.1201 64.5688 62.3852 64.677 61.487Z" fill="white"/>
<path d="M83.8526 43.2775C86.9368 43.468 89.2229 44.4343 90.7109 46.1763C92.226 47.9183 92.9835 50.2728 92.9835 53.2396C92.9835 54.4645 92.713 55.6077 92.1719 56.6692C91.6578 57.7035 90.9409 58.6154 90.021 59.4047C89.1282 60.1941 88.0731 60.8201 86.8556 61.2828C85.6652 61.7183 84.4072 61.9361 83.0815 61.9361H77.4812V69.1627H73.91V47.5645C73.4501 47.5373 73.0172 47.4964 72.6114 47.442C72.2056 47.3876 71.7998 47.2787 71.394 47.1154V43.6858C71.9351 43.8219 72.4897 43.9172 73.0578 43.9716C73.653 44.026 74.1941 44.0533 74.6811 44.0533C75.3845 44.0533 76.0609 44.0124 76.7102 43.9308C77.3866 43.8491 78.0629 43.7675 78.7393 43.6858C79.4427 43.5497 80.1326 43.4544 80.809 43.4C81.4853 43.3183 82.2158 43.2775 83.0004 43.2775H83.8526ZM89.7775 53.0355C89.7775 52.3006 89.7099 51.5793 89.5746 50.8716C89.4394 50.1367 89.1553 49.4834 88.7224 48.9118C88.2895 48.3402 87.6673 47.8639 86.8556 47.4828C86.044 47.1018 84.9618 46.8704 83.6091 46.7888C82.8516 46.7888 81.9452 46.816 80.8901 46.8704C79.862 46.9249 78.7258 47.1018 77.4812 47.4012V58.384H83.0815C83.9743 58.384 84.813 58.2615 85.5976 58.0166C86.3822 57.7716 87.0721 57.4177 87.6673 56.955C88.2895 56.4651 88.7765 55.8935 89.1282 55.2402C89.507 54.587 89.7234 53.8521 89.7775 53.0355Z" fill="white"/>
<path d="M119.324 43.4817V69.2444H115.753V49.5243L100.737 69.2444H97.4504V43.4817H101.022V62.8343L115.915 43.4817H119.324Z" fill="white"/>
<path d="M141.976 43.4817V69.1627H138.486V57.8533C138.161 58.2888 137.783 58.629 137.35 58.874C136.944 59.1189 136.497 59.3095 136.01 59.4456C135.551 59.5544 135.077 59.6361 134.59 59.6905C134.13 59.7177 133.697 59.7314 133.291 59.7314C132.128 59.7314 131.087 59.4728 130.167 58.9556C129.274 58.4385 128.503 57.7308 127.853 56.8325C127.231 55.9343 126.758 54.9 126.433 53.7296C126.108 52.5319 125.946 51.2663 125.946 49.9325C125.946 49.4426 125.892 48.9799 125.784 48.5444C125.676 48.0817 125.486 47.687 125.216 47.3604C124.945 47.0065 124.553 46.7343 124.039 46.5438C123.552 46.3533 122.93 46.258 122.172 46.258V42.8284C123.985 42.8284 125.392 43.0734 126.393 43.5633C127.394 44.0533 128.111 44.6657 128.543 45.4006C129.003 46.1355 129.274 46.9112 129.355 47.7278C129.436 48.5444 129.477 49.2793 129.477 49.9325C129.477 51.7562 129.801 53.2533 130.451 54.4237C131.127 55.5669 132.236 56.1385 133.778 56.1385C135.321 56.1385 136.484 55.5941 137.268 54.5053C138.08 53.4166 138.486 51.8923 138.486 49.9325V43.4817H141.976Z" fill="white"/>
<path d="M164.605 69.1627H146.83V43.5225H163.915V47.1562H150.401V54.3012C151.132 54.5734 151.835 54.7095 152.512 54.7095C153.405 54.7095 154.243 54.5734 155.028 54.3012C155.812 54.029 156.61 53.8929 157.422 53.8929C158.098 53.8929 158.734 54.0426 159.329 54.342V58.0982C158.626 57.8532 157.963 57.7308 157.341 57.7308C156.502 57.7308 155.691 57.8396 154.906 58.0574C154.121 58.2751 153.283 58.384 152.39 58.384C151.741 58.384 151.078 58.2888 150.401 58.0982V65.5698H164.605V69.1627Z" fill="white"/>
<path d="M191.714 60.7521C191.173 62.3035 190.348 63.7189 189.238 64.9982C188.129 66.2775 186.776 67.3254 185.18 68.142C183.286 69.0947 181.298 69.571 179.215 69.571C177.916 69.571 176.671 69.4077 175.481 69.0811C174.291 68.7272 173.181 68.2373 172.153 67.6112C171.125 66.958 170.192 66.1822 169.353 65.284C168.542 64.3858 167.852 63.3651 167.284 62.2219C166.824 61.2692 166.472 60.2893 166.228 59.2822C166.012 58.2751 165.904 57.2817 165.904 56.3018C165.904 55.0769 166.066 53.8657 166.391 52.668C166.742 51.4704 167.229 50.3544 167.852 49.3201C168.474 48.2586 169.245 47.3059 170.165 46.4621C171.085 45.5911 172.126 44.8562 173.29 44.2574C175.238 43.3047 177.253 42.8284 179.336 42.8284C180.608 42.8284 181.825 43.0053 182.989 43.3592C184.179 43.6858 185.288 44.1757 186.316 44.829C187.344 45.455 188.264 46.2172 189.076 47.1154C189.915 48.0136 190.618 49.0343 191.186 50.1775C191.484 50.7491 191.727 51.3071 191.917 51.8515C190.943 51.8515 190.199 51.8515 189.685 51.8515C189.171 51.8243 188.792 51.8106 188.548 51.8106C188.305 51.8106 188.156 51.8106 188.102 51.8106C188.048 51.7834 188.021 51.7698 188.021 51.7698C187.209 50.0822 186.019 48.7621 184.45 47.8095C182.908 46.8568 181.203 46.3805 179.336 46.3805C177.74 46.3805 176.252 46.7343 174.872 47.442C174.007 47.8775 173.236 48.4219 172.559 49.0751C171.91 49.7012 171.355 50.4089 170.895 51.1982C170.435 51.9604 170.084 52.7769 169.84 53.6479C169.597 54.5189 169.475 55.4035 169.475 56.3018C169.475 57.7988 169.813 59.2414 170.489 60.6296C171.301 62.3172 172.478 63.6373 174.02 64.5899C175.589 65.5426 177.321 66.0189 179.215 66.0189C180.676 66.0189 182.136 65.6651 183.597 64.9574C184.544 64.4947 185.383 63.8959 186.114 63.1609C186.844 62.426 187.439 61.6231 187.899 60.7521H191.714Z" fill="white"/>
<path d="M210.754 60.6704C211.241 61.6775 211.701 62.603 212.133 63.4467C212.593 64.2633 213.067 64.971 213.554 65.5698C214.068 66.1686 214.622 66.6314 215.218 66.958C215.813 67.2846 216.516 67.4479 217.328 67.4479V71C215.948 71 214.744 70.7278 213.716 70.1834C212.715 69.639 211.836 68.945 211.078 68.1012C210.321 67.2574 209.658 66.3183 209.09 65.284C208.549 64.2497 208.035 63.2426 207.548 62.2627C207.331 61.7728 207.101 61.2964 206.858 60.8337C206.614 60.3438 206.357 59.8675 206.087 59.4047C205.681 59.7041 205.275 59.9627 204.869 60.1805C204.463 60.371 204.058 60.5207 203.652 60.6296C203.354 60.7657 202.989 60.8609 202.556 60.9154C202.15 60.9698 201.812 61.0243 201.542 61.0787V69.1627H198.011V61.0379C197.632 60.9562 197.294 60.8473 196.996 60.7112C196.726 60.5479 196.482 60.371 196.266 60.1805C195.644 59.7177 195.17 59.1462 194.846 58.4657C194.521 57.758 194.359 57.0095 194.359 56.2201V55.9751C194.413 55.0769 194.67 54.2603 195.13 53.5254C195.617 52.7633 196.252 52.1781 197.037 51.7698C197.172 51.7154 197.321 51.6473 197.483 51.5657C197.673 51.484 197.889 51.416 198.133 51.3615V43.4817H201.623V51.5248C202.029 51.6337 202.529 51.797 203.124 52.0148C203.747 52.2053 204.301 52.4639 204.788 52.7905C205.14 53.0083 205.464 53.2396 205.762 53.4846C206.06 53.7024 206.357 53.9473 206.655 54.2195C206.925 53.9201 207.182 53.6071 207.426 53.2805C207.697 52.9538 207.967 52.6136 208.238 52.2598C209.266 50.8172 210.037 49.3473 210.551 47.8503C211.092 46.326 211.362 44.8834 211.362 43.5225H214.893C214.893 45.2645 214.568 47.0609 213.919 48.9118C213.27 50.7355 212.336 52.532 211.119 54.3012C210.74 54.8183 210.361 55.3219 209.983 55.8118C209.604 56.2746 209.212 56.7101 208.806 57.1183C209.185 57.6899 209.523 58.2751 209.82 58.874C210.145 59.4728 210.456 60.0716 210.754 60.6704ZM199.715 58.0166C200.04 58.0166 200.405 57.9757 200.811 57.8941C201.244 57.8124 201.663 57.7035 202.069 57.5675C202.502 57.4314 202.921 57.2817 203.327 57.1183C203.733 56.9278 204.071 56.7509 204.342 56.5876C203.774 56.0704 203.03 55.6213 202.11 55.2402C201.217 54.8319 200.365 54.6278 199.553 54.6278C199.066 54.6278 198.66 54.7911 198.336 55.1177C198.038 55.4444 197.889 55.8527 197.889 56.3426C197.889 56.4515 197.903 56.6012 197.93 56.7917C197.957 56.955 198.025 57.132 198.133 57.3225C198.268 57.4858 198.457 57.6355 198.701 57.7716C198.944 57.9077 199.283 57.9893 199.715 58.0166Z" fill="white"/>
<path d="M243.249 43.4817V69.2444H239.678V49.5243L224.663 69.2444H221.376V43.4817H224.947V62.8343L239.84 43.4817H243.249Z" fill="white"/>
<path d="M264.724 40.1746C264.264 40.0112 263.845 39.9024 263.466 39.8479C263.088 39.7663 262.722 39.7254 262.371 39.7254C261.938 39.7254 261.532 39.7663 261.153 39.8479C260.801 39.9024 260.423 39.9704 260.017 40.0521C259.963 40.0521 259.922 40.0657 259.895 40.0929C259.868 40.0929 259.841 40.0929 259.814 40.0929C259.327 40.2018 258.826 40.3106 258.312 40.4195C257.825 40.5012 257.311 40.542 256.77 40.542C256.365 40.542 255.945 40.5148 255.512 40.4604C255.079 40.3787 254.633 40.2426 254.173 40.0521V36.5C254.633 36.7994 255.079 37.0035 255.512 37.1124C255.945 37.1941 256.365 37.2349 256.77 37.2349C257.149 37.2349 257.541 37.2077 257.947 37.1533C258.353 37.0716 258.772 36.9763 259.205 36.8675C259.665 36.7314 260.152 36.6225 260.666 36.5408C261.18 36.4592 261.721 36.4183 262.289 36.4183C262.668 36.4183 263.047 36.4456 263.426 36.5C263.832 36.5544 264.264 36.6497 264.724 36.7858V40.1746ZM270 43.4817V69.2444H266.429V49.5243L251.414 69.2444H248.126V43.4817H251.698V62.8343L266.591 43.4817H270Z" fill="white"/>
</svg>
