<svg xmlns="http://www.w3.org/2000/svg" xmlns:xlink="http://www.w3.org/1999/xlink"><symbol fill="none" id="arrow-linear-sym" viewBox="0 0 16 16"><title>arrow-linear</title><path d="m4.86 12 .71-.688-2.922-2.82h12.583v-.983H2.648l2.922-2.83L4.86 4 .73 8l4.13 4Z" fill="#000"/></symbol><use fill="none" xlink:href="#arrow-linear-sym" width="16" height="16"/><view id="arrow-linear" viewBox="0 0 16 16"/><symbol fill="none" id="arrow-sym" viewBox="0 0 16 16"><title>arrow</title><path fill-rule="evenodd" clip-rule="evenodd" d="M0 4.758 1.3 3.5 8 9.985 14.7 3.5 16 4.758 8 12.5 0 4.758Z" fill="#000"/></symbol><use fill="none" xlink:href="#arrow-sym" y="16" width="16" height="16"/><view id="arrow" viewBox="0 16 16 16"/><symbol fill="none" id="cross-sym" viewBox="0 0 16 16"><title>cross</title><path fill-rule="evenodd" clip-rule="evenodd" d="M15.175 16 0 .825.825 0 16 15.175l-.825.825Z" fill="#000"/><path fill-rule="evenodd" clip-rule="evenodd" d="M.825 16 16 .825 15.175 0 0 15.175.825 16Z" fill="#000"/></symbol><use fill="none" xlink:href="#cross-sym" y="32" width="16" height="16"/><view id="cross" viewBox="0 32 16 16"/><symbol fill="none" id="eye-sym" viewBox="0 0 16 16"><title>eye</title><path fill-rule="evenodd" clip-rule="evenodd" d="M11.099 10.81c1.34-.627 2.578-1.667 3.641-3.059-1.06-1.388-2.294-2.427-3.629-3.056A4.407 4.407 0 0 1 12.33 8.03v.002a4.392 4.392 0 0 1-1.231 2.78Zm4.608-3.435a.645.645 0 0 1 0 .753C13.725 10.834 11.04 12.5 8.078 12.5c-2.961 0-5.647-1.666-7.628-4.375a.645.645 0 0 1 0-.753C2.43 4.666 5.117 3 8.078 3c2.962 0 5.647 1.666 7.63 4.375Zm-14.29.374C2.477 6.36 3.713 5.32 5.049 4.693a4.384 4.384 0 0 0-1.222 2.778m4.039-3.066c-1.623.104-2.94 1.457-3.04 3.127-.124 2.024 1.499 3.69 3.465 3.563 1.62-.108 2.936-1.46 3.04-3.127.124-2.024-1.5-3.69-3.465-3.563ZM1.416 7.75c1.06 1.388 2.295 2.427 3.63 3.056a4.408 4.408 0 0 1-1.22-3.336m2.501.162c-.07 1.089.805 1.985 1.865 1.917.871-.056 1.582-.783 1.639-1.686.07-1.089-.806-1.985-1.865-1.917-.875.059-1.585.786-1.639 1.686Zm1.705-.688c.43-.027.834.341.8.855V7.8c-.026.424-.357.729-.704.75h-.001c-.43.028-.835-.34-.802-.854v-.005c.025-.414.352-.723.707-.747Z" fill="#121212"/></symbol><use fill="none" xlink:href="#eye-sym" y="48" width="16" height="16"/><view id="eye" viewBox="0 48 16 16"/><symbol fill="none" id="play-sym" viewBox="0 0 16 16"><title>play</title><path d="M16 8 4 14.928V1.072L16 8Z" fill="#000"/></symbol><use fill="none" xlink:href="#play-sym" y="64" width="16" height="16"/><view id="play" viewBox="0 64 16 16"/></svg>