<svg width="16" height="16" viewBox="0 0 16 16" fill="none" xmlns="http://www.w3.org/2000/svg">
<path fill-rule="evenodd" clip-rule="evenodd" d="M11.0987 10.8109C12.4382 10.1834 13.6773 9.14271 14.7401 7.75149C13.6807 6.36294 12.446 5.32367 11.1113 4.6953C11.931 5.54674 12.4085 6.73878 12.3297 8.02939L12.3295 8.03111C12.2622 9.10288 11.8058 10.0817 11.0987 10.8109ZM15.7071 7.37509C15.8688 7.59678 15.8688 7.90649 15.7071 8.12817C13.7254 10.8341 11.0398 12.5 8.07837 12.5C5.11693 12.5 2.43134 10.8341 0.449649 8.12491C0.287943 7.90323 0.287943 7.59351 0.449649 7.37183C2.43134 4.66592 5.11693 3 8.07837 3C11.0398 3 13.7254 4.66592 15.7071 7.37509ZM1.41662 7.74851C2.47715 6.3603 3.71317 5.32108 5.04936 4.69321C4.3455 5.42206 3.89225 6.39977 3.82708 7.47061M7.86593 4.40511C6.24253 4.50944 4.92669 5.86239 4.82522 7.53157C4.70157 9.55611 6.32497 11.222 8.29081 11.0949C9.91104 10.9873 11.2269 9.63435 11.3315 7.96843C11.4552 5.94389 9.83177 4.27797 7.86593 4.40511ZM1.41662 7.74851C2.47609 9.13706 3.71071 10.1763 5.04539 10.8047C4.22583 9.95333 3.74833 8.76141 3.82707 7.4709M6.32814 7.63264C6.25838 8.72152 7.1335 9.61805 8.19251 9.54959C9.06446 9.49417 9.7747 8.76716 9.83177 7.8641C9.90153 6.77522 9.02641 5.87869 7.96739 5.94715C7.09228 6.00583 6.38204 6.73284 6.32814 7.63264ZM8.03308 6.94499C8.46247 6.91795 8.86675 7.2861 8.83382 7.80017L8.83376 7.80103C8.80697 8.22493 8.4756 8.52958 8.12908 8.5516L8.128 8.55167C7.69818 8.57946 7.29313 8.21111 7.32609 7.69657L7.3261 7.69657L7.32635 7.69243C7.35115 7.27837 7.67775 6.96948 8.03308 6.94499Z" fill="#121212"/>
</svg>
